<svg xmlns="http://www.w3.org/2000/svg"  width="32.452" height="32.608" viewBox="0 0 32.452 32.608">
  <path id="_002-whatsapp" data-name="002-whatsapp" d="M27.974,4.739a16.162,16.162,0,0,0-25.432,19.5L.25,32.608l8.566-2.247a16.141,16.141,0,0,0,7.722,1.967h.007A16.165,16.165,0,0,0,27.974,4.739ZM16.544,29.6h-.006A13.413,13.413,0,0,1,9.7,27.727l-.49-.291L4.129,28.769l1.357-4.956-.319-.508A13.43,13.43,0,1,1,16.544,29.6ZM23.91,19.541c-.4-.2-2.389-1.179-2.759-1.314s-.639-.2-.908.2-1.043,1.314-1.279,1.583-.471.3-.875.1a11.028,11.028,0,0,1-3.247-2,12.179,12.179,0,0,1-2.246-2.8c-.235-.4,0-.6.177-.824a11.421,11.421,0,0,0,1.009-1.381.743.743,0,0,0-.034-.707c-.1-.2-.908-2.189-1.244-3-.328-.787-.661-.681-.909-.693s-.5-.014-.774-.014A1.483,1.483,0,0,0,9.746,9.2a4.528,4.528,0,0,0-1.413,3.368,7.854,7.854,0,0,0,1.649,4.177c.2.269,2.847,4.347,6.9,6.1a23.109,23.109,0,0,0,2.3.851,5.535,5.535,0,0,0,2.543.16,4.159,4.159,0,0,0,2.725-1.92,3.373,3.373,0,0,0,.235-1.92c-.1-.168-.37-.269-.774-.471Zm0,0" transform="translate(-0.25)" fill="#fff" fill-rule="evenodd"/>
</svg>
