<svg xmlns="http://www.w3.org/2000/svg" width="26.334" height="26.337" viewBox="0 0 26.334 26.337">
  <path id="_003-telegram" data-name="003-telegram" d="M25.966.215A1.028,1.028,0,0,0,24.916.09L.637,10.949a1.032,1.032,0,0,0-.15,1.8l8.08,5.378v7.186a1.029,1.029,0,0,0,1.858.608l3.231-4.407,6.995,4.655a1.029,1.029,0,0,0,1.584-.685L26.351,1.2a1.029,1.029,0,0,0-.384-.985ZM10.625,22.164V19.491l1.317.877Zm9.847,1.409-9.259-6.162L20.2,8.5a1.029,1.029,0,1,0-1.449-1.461l-9.283,9.21L3.181,12.065,24,2.753Z" transform="translate(-0.032 0)" fill="#fff"/>
</svg>
