<svg id="_001-sort-down" data-name="001-sort-down" xmlns="http://www.w3.org/2000/svg" width="24.078" height="22.02" viewBox="0 0 24.078 22.02">
  <g id="Group_36" data-name="Group 36" transform="translate(0 2.676)">
    <g id="Group_35" data-name="Group 35">
      <path id="Path_54" data-name="Path 54" d="M12.49,78.783H.707a.707.707,0,0,0,0,1.415H12.49a.707.707,0,1,0,0-1.415Z" transform="translate(0 -78.783)" fill="#474747"/>
    </g>
  </g>
  <g id="Group_40" data-name="Group 40" transform="translate(0 7.643)">
    <g id="Group_39" data-name="Group 39">
      <path id="Path_56" data-name="Path 56" d="M11.918,205.67H.707a.707.707,0,1,0,0,1.415h11.21a.707.707,0,1,0,0-1.415Z" transform="translate(0 -205.67)" fill="#474747"/>
    </g>
  </g>
  <g id="Group_44" data-name="Group 44" transform="translate(0 12.615)">
    <g id="Group_43" data-name="Group 43">
      <path id="Path_58" data-name="Path 58" d="M8.974,332.662H.707a.707.707,0,1,0,0,1.415H8.974a.707.707,0,1,0,0-1.415Z" transform="translate(0 -332.662)" fill="#474747"/>
    </g>
  </g>
  <g id="Group_46" data-name="Group 46" transform="translate(0 17.628)">
    <g id="Group_45" data-name="Group 45">
      <path id="Path_59" data-name="Path 59" d="M10.342,396.723H.707a.707.707,0,0,0,0,1.415h9.634a.707.707,0,0,0,0-1.415Z" transform="translate(0 -396.723)" fill="#474747"/>
    </g>
  </g>
  <g id="Group_48" data-name="Group 48" transform="translate(12.282 0)">
    <g id="Group_47" data-name="Group 47">
      <path id="Path_60" data-name="Path 60" d="M272.28,36.344a2.33,2.33,0,0,0-2.875-.333v-11.8a2.33,2.33,0,0,0-4.659,0V36.025a2.33,2.33,0,0,0-2.9,3.613l3.482,3.481a.7.7,0,0,0,.079.095,2.314,2.314,0,0,0,1.647.682c.057,0,.114,0,.171-.007a2.319,2.319,0,0,0,1.492-.675.716.716,0,0,0,.079-.1l3.481-3.481a2.329,2.329,0,0,0,0-3.294Zm-1,2.294L267.7,42.214a.9.9,0,0,1-1.277,0l-3.576-3.576a.915.915,0,1,1,1.293-1.293l.81.81.027.025L265,38.2l.035.026.021.015.037.023.022.013.037.018.026.012.036.013.03.01.036.009.032.008.041.006.028,0c.023,0,.047,0,.07,0h0c.023,0,.046,0,.069,0l.033,0,.035-.005.038-.009.029-.008.037-.013.028-.01.035-.016.028-.013.034-.02.025-.015.04-.029.016-.012a.714.714,0,0,0,.1-.1l.01-.013c.011-.014.022-.028.032-.043l.013-.021c.008-.013.016-.025.023-.038l.011-.023c.006-.013.013-.026.018-.04l.008-.022c.005-.014.011-.029.015-.043s0-.014.005-.021.008-.031.011-.047,0-.014,0-.02.005-.032.007-.048,0-.015,0-.022,0-.031,0-.046V24.207a.915.915,0,0,1,1.829,0V37.632c0,.023,0,.047,0,.07s0,.02,0,.03,0,.025.006.038.006.023.009.035.005.022.008.032.008.023.012.034.007.021.012.031.01.021.014.031.01.021.015.032l.017.029c.006.01.012.02.018.03s.016.022.024.032l.017.023a.714.714,0,0,0,.1.1l.022.017.034.025.028.017.031.018.03.014.033.015.029.011.036.013.029.007.038.009.032,0,.036.005.055,0h.029l.055,0,.036-.005.032,0,.039-.009.029-.007.037-.013.029-.011L269,38.27l.029-.014.032-.019.028-.017.035-.026.021-.016a.7.7,0,0,0,.053-.048l.787-.787a.915.915,0,0,1,1.294,1.294Z" transform="translate(-261.167 -21.877)" fill="#474747"/>
    </g>
  </g>
</svg>
